<?xml version="1.0" standalone="no"?>
<!DOCTYPE svg PUBLIC "-//W3C//DTD SVG 20010904//EN"
 "http://www.w3.org/TR/2001/REC-SVG-20010904/DTD/svg10.dtd">
<svg version="1.0" xmlns="http://www.w3.org/2000/svg"
 width="283.000000pt" height="283.000000pt" viewBox="0 0 283.000000 283.000000"
 preserveAspectRatio="xMidYMid meet">
<metadata>
Created by potrace 1.11, written by Peter Selinger 2001-2013
</metadata>
<g transform="translate(0.000000,283.000000) scale(0.100000,-0.100000)"
fill="#000000" stroke="none">
<path d="M2365 2699 c-16 -5 -43 -12 -60 -15 -16 -3 -91 -20 -165 -39 -123
-31 -494 -122 -530 -130 -8 -2 -53 -13 -100 -25 -47 -12 -93 -24 -103 -26 -65
-12 -88 -34 -113 -108 -34 -99 -20 -308 31 -476 29 -96 93 -216 142 -270 57
-61 92 -72 173 -53 30 7 64 15 75 17 11 2 38 9 60 15 22 6 126 32 230 56 105
25 217 52 250 60 33 9 69 17 80 19 11 2 74 18 140 34 66 17 134 33 150 36 35
6 65 39 65 71 0 13 -43 200 -96 416 -68 276 -102 397 -115 410 -20 20 -64 23
-114 8z"/>
<path d="M940 2250 c-258 -65 -259 -65 -280 -150 -31 -119 9 -353 82 -490 45
-85 103 -140 147 -140 20 0 472 109 480 116 2 1 -6 15 -17 31 -92 131 -164
385 -164 585 -1 59 -4 108 -7 107 -3 -1 -112 -27 -241 -59z"/>
<path d="M400 2001 c-80 -21 -157 -40 -172 -44 -99 -26 -74 -335 38 -465 43
-50 48 -51 192 -16 59 14 117 27 129 30 12 2 34 9 48 14 14 5 25 6 25 3 0 -4
5 -2 10 3 8 8 2 30 -19 75 -34 75 -67 177 -76 240 -3 24 -8 53 -10 64 -2 11
-4 46 -4 78 -1 31 -4 56 -8 56 -5 -1 -73 -18 -153 -38z"/>
<path d="M1409 1506 c-2 -3 -16 -7 -29 -9 -90 -17 -356 -90 -362 -100 -9 -15
-1 -68 18 -115 l15 -40 -175 -278 c-417 -665 -429 -686 -429 -717 0 -40 53
-87 99 -87 26 0 40 9 68 42 20 23 36 45 36 49 0 7 38 69 182 294 21 33 100
160 176 282 75 121 139 220 140 218 2 -2 4 -196 3 -432 0 -283 3 -437 10 -455
20 -49 112 -62 150 -22 l24 26 0 444 c0 244 2 444 5 444 3 0 26 -35 51 -78 25
-42 139 -225 254 -407 114 -181 212 -339 219 -350 31 -54 72 -68 125 -41 39
21 54 42 53 76 -1 26 -18 57 -137 245 -17 28 -130 207 -250 399 l-218 348 16
47 c22 60 22 137 -1 180 -16 33 -33 47 -43 37z"/>
</g>
</svg>
